<svg id="Capa_1" data-name="Capa 1" xmlns="http://www.w3.org/2000/svg" viewBox="0 0 512 512"><title>factory</title><path d="M506.65,214.78a10,10,0,0,0-10.32.62L405.48,278V223.63a10,10,0,0,0-15.68-8.23L299,278V223.63a10,10,0,0,0-15.67-8.23L192.48,278V242a10,10,0,0,0-10-10h-18.6V132.11a24.83,24.83,0,0,0-24.79-24.82H106.23V78.6A80,80,0,0,0,120.94,80a66.77,66.77,0,0,0,33.61-8.75c17.66-10.2,29.75-28.48,34-51.49a10,10,0,0,0-6.5-11.27c-22.1-7.78-44-6.45-61.66,3.74A66.6,66.6,0,0,0,96.23,36.71,66.45,66.45,0,0,0,72,12.25C54.37,2.05,32.48.73,10.39,8.51A10,10,0,0,0,3.88,19.78c4.31,23,16.4,41.3,34.05,51.49A66.59,66.59,0,0,0,71.52,80,80,80,0,0,0,86.23,78.6v28.69H53.4a24.86,24.86,0,0,0-24.83,24.82V232H10A10,10,0,0,0,0,242V498.49a10,10,0,0,0,10,10H502a10,10,0,0,0,10-10V223.64a10,10,0,0,0-5.35-8.86ZM130.44,29.57c10.3-5.94,22.94-7.53,36.28-4.67-4.19,13-11.88,23.1-22.17,29.05s-22.94,7.53-36.27,4.67C112.47,45.66,120.15,35.51,130.44,29.57ZM47.93,54C37.64,48,30,37.87,25.76,24.9,39.1,22,51.73,23.63,62,29.57S80,45.65,84.18,58.62C70.85,61.48,58.22,59.89,47.93,54Zm5.47,73.34h85.69a4.87,4.87,0,0,1,4.79,4.82v22.73H48.57V132.11a4.83,4.83,0,0,1,4.83-4.82Zm-4.83,47.55h95.31V232H48.57Zm73.77,313.65H70.14V388.35a.26.26,0,0,1,.21-.23h51.76a.28.28,0,0,1,.23.23Zm50.15,0H142.34V388.35a20.26,20.26,0,0,0-20.23-20.23H70.35a20.25,20.25,0,0,0-20.21,20.23V488.49H20V252H172.49ZM492,438.62H384.48a10,10,0,0,0,0,20H492v29.87H192.48V458.62H294.65a10,10,0,0,0,0-20H192.48V302.25L279,242.67V297a10,10,0,0,0,15.67,8.23l90.83-62.56V297a10,10,0,0,0,15.67,8.23L492,242.66Z"/><path d="M275.54,338.63h-52.8a10,10,0,0,0-10,10v52.81a10,10,0,0,0,10,10h52.8a10,10,0,0,0,10-10V348.63A10,10,0,0,0,275.54,338.63Zm-10,52.81h-32.8V358.63h32.8Z"/><path d="M368.63,338.63H315.82a10,10,0,0,0-10,10v52.81a10,10,0,0,0,10,10h52.81a10,10,0,0,0,10-10V348.63a10,10,0,0,0-10-10Zm-10,52.81H325.82V358.63h32.81Z"/><path d="M398.91,401.44a10,10,0,0,0,10,10h52.81a10,10,0,0,0,10-10V348.63a10,10,0,0,0-10-10H408.91a10,10,0,0,0-10,10Zm20-42.81h32.81v32.81H418.91Z"/><path d="M339.58,438.62a10,10,0,0,0,0,20h0a10,10,0,0,0,0-20Z"/></svg>