<svg id="Layer_1" data-name="Layer 1" xmlns="http://www.w3.org/2000/svg" viewBox="0 0 511 511"><title>pencil</title><path d="M174.69,337.36a10,10,0,1,0,0-14.12A10,10,0,0,0,174.69,337.36Z"/><path d="M217,309.12l95.51-95.57a10,10,0,0,0-14.12-14.11L202.92,295A10,10,0,1,0,217,309.12Z"/><path d="M157.21,270.15l-86,86a10,10,0,0,0-2.26,3.5.36.36,0,0,0,0,.09c-7.94,21.47-32,86.58-41.5,112.2a10,10,0,0,0,12.84,12.82l112.06-41.63a10.16,10.16,0,0,0,3.59-2.29l85.95-86L395.14,509a10,10,0,0,0,7.08,2.94h0a10,10,0,0,0,7.08-3l98.8-99.72a10,10,0,0,0,0-14.08L354.83,241.9,467.67,129.06A59.88,59.88,0,1,0,383,44.37L270.14,157.22,116.83,3.92a10,10,0,0,0-14.07,0L3,102.67a10,10,0,0,0,0,14.18Zm120-91.75h0l62.23-62.23,56.46,56.46-62.23,62.22h0L148.88,419.62,92.42,363.16Zm97.53-97.54,56.46,56.46L410,158.5,353.55,102ZM89.66,445.09,67,422.45l15.24-41.21,48.56,48.56Zm-30.26-2,9.68,9.67-15.36,5.71ZM363.87,279.17l-42.76,42.75A10,10,0,0,0,335.22,336L378,293.29l30.23,30.22-28.65,28.64a10,10,0,0,0,14.12,14.12l28.65-28.65,30.23,30.24L409.8,410.61a10,10,0,0,0,14.11,14.12L466.67,382l20.27,20.26c-84.28,84.21-84.73,85.52-84.73,85.52L256,340.73,340.72,256ZM453.56,58.49a39.89,39.89,0,0,1,0,56.46l-8.26,8.26L388.84,66.75l8.26-8.26A39.88,39.88,0,0,1,453.56,58.49ZM132,47.33,89.26,90.07a10,10,0,1,0,14.11,14.12l42.76-42.75,30.22,30.23L147.72,120.3a10,10,0,1,0,14.11,14.12l28.64-28.64L218.69,134l-42.75,42.76a10,10,0,0,0,14.11,14.11l42.75-42.75L256,171.34,171.33,256,24.15,109.78s1.39-.45,85.59-84.72Z"/></svg>