<svg id="Layer_1" data-name="Layer 1" xmlns="http://www.w3.org/2000/svg" viewBox="0 0 518.13 247.83"><title>prepayment</title><path d="M223.58,62c0,41.65-15.46,64.65-42.6,64.65-23.94,0-40.15-22.43-40.52-63,0-41.08,17.71-63.7,42.59-63.7C208.88,0,223.58,23,223.58,62ZM157,63.9c0,31.85,9.8,49.94,24.88,49.94,17,0,25.07-19.79,25.07-51.07,0-30.16-7.73-49.95-24.88-49.95C167.6,12.82,157,30.53,157,63.9Z"/><path d="M294.09,36.56c0,25.83-13.57,38.64-29.4,38.64C249.42,75.2,236.23,63,236,38.26,236,13.76,249.42,0,265.63,0,282.78,0,294.09,13.19,294.09,36.56ZM249.23,37.7c-.38,15.64,5.47,27.51,15.83,27.51,10.93,0,15.84-11.68,15.84-27.89,0-14.89-4.34-27.33-15.84-27.33C254.7,10,249.23,22.24,249.23,37.7Zm14.33,89L335.56,0h10.55l-72,126.66ZM373.82,87.27c0,25.82-13.57,38.63-29.22,38.63-15.27,0-28.46-12.25-28.65-36.75,0-24.69,13.38-38.45,29.6-38.45C362.7,50.7,373.82,63.9,373.82,87.27ZM329,88.4c-.19,15.64,5.84,27.51,16,27.51,10.93,0,15.83-11.68,15.83-27.89,0-14.89-4.34-27.33-15.83-27.33C334.61,60.69,329,72.94,329,88.4Z"/><path d="M44.05,172.22v60.95H36.18V178.82H7.87v54.35H0V172.22Z"/><path d="M57.82,172.94a91.57,91.57,0,0,1,15.11-1.18c7.77,0,13.47,1.81,17.09,5.07,3.35,2.89,5.34,7.32,5.34,12.75s-1.63,9.86-4.71,13C86.49,207,79.71,209.3,72,209.3a26.65,26.65,0,0,1-6.33-.55v24.42H57.82Zm7.87,29.39a26,26,0,0,0,6.51.64c9.5,0,15.29-4.62,15.29-13,0-8.05-5.7-11.93-14.38-11.93a33.22,33.22,0,0,0-7.42.63Z"/><path d="M137.53,204.59h-23.7v22h26.41v6.6H106V172.22h32.92v6.6h-25v19.26h23.7Z"/><path d="M194,172.22v54.53l5.33.18-.54,20.9h-6.15l-.54-14.66H153.65l-.54,14.66H147l-.54-20.9,4.61-.18a72,72,0,0,0,6-13.38c2.08-7.06,2.89-15.2,2.89-25.69V172.22Zm-26.77,18c0,9.76-.91,18-3.08,24.87a58.79,58.79,0,0,1-5,11.57h27V178.73h-18.9Z"/><path d="M260.58,202.06c0,21-12.75,32.11-28.3,32.11-16.1,0-27.41-12.48-27.41-30.93,0-19.36,12-32,28.31-32C249.82,171.22,260.58,184,260.58,202.06Zm-47.3,1c0,13,7.06,24.69,19.45,24.69s19.53-11.49,19.53-25.32c0-12.13-6.33-24.79-19.44-24.79S213.28,189.67,213.28,203.06Z"/><path d="M314.88,172.22v60.95H307V178.82H278.71v54.35h-7.87V172.22Z"/><path d="M369,172.22v60.95h-8V178.82H340.87v18.45c0,13.2-.54,27.94-9.13,33.73a18.29,18.29,0,0,1-9.32,2.9l-1-6.33a14,14,0,0,0,6.42-3.26c4.88-4.79,5.34-16.64,5.34-26.41V172.22Z"/><path d="M392.54,214l-6.32,19.17h-8.15l20.72-60.95h9.49l20.8,60.95h-8.41L414.16,214Zm20-6.15-6-17.55c-1.35-4-2.26-7.59-3.16-11.12h-.18c-.91,3.62-1.9,7.33-3.08,11l-6,17.63Z"/><path d="M445.66,178.91H427.12v-6.69h45.13v6.69H453.62v54.26h-8Z"/><path d="M481.59,214l-6.33,19.17h-8.14l20.7-60.95h9.5l20.81,60.95h-8.42L503.2,214Zm20-6.15-6-17.55c-1.36-4-2.26-7.59-3.17-11.12h-.18c-.91,3.62-1.9,7.33-3.07,11l-6,17.63Z"/></svg>